# xmcd
#
# Track frame offsets:
#	150
#	15487
#	31337
#	47462
#	63635
#	73350
#	87962
#	106687
#	123425
#	135297
#
# Disc length: 2059 seconds
#
# Revision: 8
# Processed by: cddbd v1.5.1PL0 Copyright (c) Steve Scherf et al.
# Submitted via: audiograbber 1.83.01
#
DISCID=7d08090a
DTITLE=Various Artist - Great Original Country Hits of the '80s
DYEAR=1997
DGENRE=Country
TTITLE0=Alabama - Forty Hour Week
TTITLE1=The Judds - Why Not Me
TTITLE2=Randy Travis - Forever And Ever, Amen
TTITLE3=Vince Gill - Cinderella
TTITLE4=Waylon Jennings - Theme From The Dukes Of Hazzard
TTITLE5=The Oak Ridge Boys - True Heart
TTITLE6=K.T. Oslin - I'll Always Come Back
TTITLE7=Keith Whitley - When You Say Nonthing At All
TTITLE8=Earl Thomas Conley - I Have Loved You Girl
TTITLE9=Ronnie Milsap - Lost In The Fiifties Tonight
EXTD=1989 Reader's Digest Music [RB7-248-1 FCD1-5501] - IFPI L238  FCD15501 1J 
EXTD=YEAR: 1997 ID3G:   2
EXTT0=
EXTT1=
EXTT2=
EXTT3=
EXTT4=
EXTT5=
EXTT6=
EXTT7=
EXTT8=
EXTT9=
PLAYORDER=
